<svg width="51" height="14" viewBox="0 0 51 14" fill="none" xmlns="http://www.w3.org/2000/svg">
<g clip-path="url(#clip0)">
<g clip-path="url(#clip1)">
<path fill-rule="evenodd" clip-rule="evenodd" d="M33.6484 13.7697H37.1833L38.7013 9.50305L40.2803 8.19555L41.5243 12.0537C41.9086 13.2459 42.3046 13.7697 43.1685 13.7697H45.8737L43.0824 6.19797L49.7962 0.206055H45.4602L41.3848 4.47275C40.9103 4.96901 40.4299 5.45859 39.9486 6.04174H39.9077L41.9429 0.206055H38.4106L33.6484 13.7697Z" fill="#1AB248"/>
<path fill-rule="evenodd" clip-rule="evenodd" d="M33.4993 0.206055H36.583L35.8536 2.44592C35.6239 3.14938 35.0424 3.48607 33.76 3.48607H26.0094L26.7396 1.2462C26.9677 0.540239 27.5525 0.206055 28.8333 0.206055H33.4993ZM27.0345 5.34747H34.7843L34.0549 7.58734C33.8252 8.2908 33.2437 8.62749 31.9604 8.62749H24.2107L24.9409 6.38846C25.1698 5.685 25.7513 5.34831 27.0345 5.34831V5.34747ZM32.8995 10.4897H25.1472C23.8648 10.4897 23.2825 10.8239 23.0536 11.5299L22.3242 13.7697H30.0739C31.3564 13.7697 31.9387 13.4356 32.1676 12.7288L32.897 10.4897H32.8995Z" fill="#1AB248"/>
<path fill-rule="evenodd" clip-rule="evenodd" d="M17.6285 3.4727H19.525C21.1416 3.4727 20.7723 5.42684 19.9544 7.33085C19.2334 9.00846 17.9568 10.4897 16.433 10.4889H13.2682C12.0067 10.4889 11.4252 10.8231 11.1796 11.529L10.3984 13.7681H12.7177L14.9843 13.7497C16.9894 13.7338 18.6394 13.5926 20.5635 11.9192C22.5978 10.1514 24.9689 5.55717 24.562 2.90041C24.247 0.820118 23.0916 0.206055 20.2928 0.206055H15.1898L12.2222 8.6183H14.1095C15.2324 8.6183 15.7955 8.63334 16.3929 7.07771L17.6285 3.4727Z" fill="#1AB248"/>
<path fill-rule="evenodd" clip-rule="evenodd" d="M8.90745 3.4844H7.48048C4.62321 3.4844 2.17448 10.4906 5.55308 10.4889H7.72527C8.97846 10.4889 9.90666 10.9317 9.49561 12.1247L8.92834 13.7681H6.62497L4.75187 13.7497C2.35578 13.7263 0.809339 12.58 0.252923 10.8473C-0.351114 8.97086 0.501055 5.05172 2.969 2.54534C4.40182 1.08663 6.38603 0.206055 8.93001 0.206055H13.6303L12.8951 2.25878C12.4206 3.58549 11.4506 3.48607 10.8975 3.48607H8.90745V3.4844Z" fill="#1AB248"/>
</g>
</g>
<defs>
<clipPath id="clip0">
<rect x="0.0625" y="0.207031" width="50.3794" height="13.5637" fill="white"/>
</clipPath>
<clipPath id="clip1">
<rect x="0.0625" y="0.207031" width="49.7332" height="13.5637" fill="white"/>
</clipPath>
</defs>
</svg>
