<svg width="51" height="14" viewBox="0 0 51 14" fill="none" xmlns="http://www.w3.org/2000/svg">
<g clip-path="url(#clip0)">
<g clip-path="url(#clip1)">
<path fill-rule="evenodd" clip-rule="evenodd" d="M18.9367 1.9918H6.70413L6.26755 1.48657H4.86719L5.15275 0.396484H19.3486L18.9367 1.9918Z" fill="#FFA100"/>
<path fill-rule="evenodd" clip-rule="evenodd" d="M26.9607 3.84226V3.86148H23.9842C23.814 4.41064 23.6739 4.99275 23.5312 5.55289H26.5158L25.7113 8.63643H22.7431C22.5839 9.20756 22.4411 9.77869 22.2901 10.3471H25.283L24.4867 13.4498V13.4663H17.8281L18.2153 11.9753H24.1352L24.2835 11.4454H18.3471C18.4981 10.8688 18.6491 10.2812 18.8001 9.69356H21.6613L21.804 9.16637H18.9429L19.396 7.45024H25.3077C25.3654 7.27177 25.4011 7.07956 25.4505 6.90108H19.5305C19.6651 6.32996 19.8326 5.76981 19.9671 5.19869H22.8255L22.9655 4.67424H20.1071L20.541 2.97184H26.4554C26.5158 2.78787 26.5488 2.60116 26.5982 2.42268H20.6783L21.1149 0.728516H27.7734L26.9497 3.86422L26.9607 3.84226Z" fill="#0186D4"/>
<path fill-rule="evenodd" clip-rule="evenodd" d="M34.0779 5.83009L34.4321 5.17659H39.3362L39.4707 4.65763L34.7342 4.64116L35.665 2.96347L39.9155 2.947C39.9649 2.76303 40.0061 2.57631 40.0501 2.39784H35.9918L36.9308 0.711914H41.0138L37.7353 13.4826H34.5996C34.7342 12.9884 34.8495 12.4859 34.9841 11.9834H37.6008L37.7353 11.4617H35.1268L35.5387 9.71815H38.1802C38.2378 9.55066 38.279 9.36668 38.323 9.19095H35.7144L36.1455 7.45012H38.7678C38.8199 7.2634 38.8611 7.07943 38.9188 6.90095H36.2444C36.3048 6.59892 36.3789 6.29688 36.4366 6.00308L32.6364 13.4689H31.453V11.9862H32.738C32.8286 11.8105 32.9137 11.632 33.0126 11.4562H31.4612V9.70442H33.9022C33.9956 9.53693 34.0779 9.35296 34.1768 9.17723H31.4667V7.45012H35.0362C35.1296 7.2634 35.2312 7.07943 35.3108 6.90095H31.453C31.453 6.58244 31.453 6.26393 31.453 5.95365L29.4924 13.4909H26.332L26.7164 11.9999H29.1135C29.1657 11.8324 29.2069 11.6567 29.2563 11.4782H26.851L27.304 9.71815H29.7011C29.7451 9.54242 29.7862 9.36668 29.8357 9.19095H27.4468C27.5896 8.61983 27.7489 8.0487 27.8916 7.47208H30.2805C30.3382 7.29361 30.3739 7.1014 30.4233 6.92292H28.0344L28.4683 5.22052H33.3833V4.70157H28.5946L29.0312 3.01564H33.2569V2.40882H29.1822L29.6188 0.71466H33.7677L34.0697 5.83833L34.0779 5.83009Z" fill="#0186D4"/>
<path fill-rule="evenodd" clip-rule="evenodd" d="M49.9452 2.39255L49.3576 4.64961H46.1065C46.1724 4.37503 46.2383 4.1279 46.3152 3.8698H45.2581C45.0988 4.41896 44.9643 4.99283 44.8215 5.55297L47.1445 5.57219L48.7453 7.03845L47.4877 11.9809L44.8737 13.4801H41.7544L39.75 11.9809H46.8012L46.944 11.4674H39.8653L40.3266 9.72385H43.7479L43.5886 10.3773H44.6293L44.805 9.71561H47.3806C47.43 9.53988 47.4877 9.37239 47.5316 9.18842H44.9478C44.9725 9.01818 45.0412 8.85892 45.0659 8.68319H42.4244C42.0455 8.2823 41.6446 7.88691 41.2574 7.48602H47.9572C48.0094 7.2993 48.0588 7.11533 48.1165 6.93686H41.0488C41.1915 6.36573 41.3233 5.80559 41.4853 5.2427H44.2861C44.3275 5.06725 44.3779 4.89404 44.4371 4.72374H41.6199C41.7544 4.15261 41.9219 3.59796 42.0565 3.03782H49.1159L49.2587 2.48866H42.1883L45.0494 0.802734H48.1522L49.9452 2.48866V2.39255Z" fill="#0186D4"/>
<path fill-rule="evenodd" clip-rule="evenodd" d="M18.3317 4.31191H8.70494L8.06791 3.57604H4.32812L4.56426 2.66992H18.7601L18.3317 4.31191Z" fill="#FFA100"/>
<path fill-rule="evenodd" clip-rule="evenodd" d="M17.7545 6.56954H10.6511L9.83838 5.62224H3.80859L3.98433 4.9248H18.1801L17.7545 6.56954Z" fill="#FFA100"/>
<path fill-rule="evenodd" clip-rule="evenodd" d="M17.1945 8.7244H12.5157L11.5519 7.60137H3.30078L3.41611 7.13184H17.6229L17.1945 8.7244Z" fill="#FFA100"/>
<path fill-rule="evenodd" clip-rule="evenodd" d="M16.597 10.9701H14.4498L13.302 9.63843H2.77734L2.8707 9.2348L11.8083 9.22656H17.05L16.597 10.9701Z" fill="#FFA100"/>
<path fill-rule="evenodd" clip-rule="evenodd" d="M16.0952 12.9014L15.0985 11.7262L2.23438 11.718L2.2838 11.4736L16.4714 11.4819L16.0952 12.9014Z" fill="#FFA100"/>
<path fill-rule="evenodd" clip-rule="evenodd" d="M15.8586 13.7794L1.6875 13.7877L1.73967 13.5625H15.9355L15.8586 13.7794Z" fill="#FFA100"/>
</g>
</g>
<defs>
<clipPath id="clip0">
<rect x="0.636719" y="0.125" width="49.4245" height="13.729" fill="white"/>
</clipPath>
<clipPath id="clip1">
<rect x="1.55078" y="0.125" width="48.6007" height="13.729" fill="white"/>
</clipPath>
</defs>
</svg>
