<svg width="20" height="22" viewBox="0 0 20 22" fill="none" xmlns="http://www.w3.org/2000/svg">
<path fill-rule="evenodd" clip-rule="evenodd" d="M13.7963 1.40037C14.1244 1.30739 14.2715 1.08479 14.2715 0.774853V0.757947C14.2715 0.256406 13.9434 0 13.3013 0H12V2.91908H13.355C14.0396 2.91908 14.3819 2.64014 14.3819 2.10197V2.08506C14.3819 1.69341 14.1782 1.47645 13.7963 1.40037ZM12.6478 0.453641H13.1909C13.5021 0.453641 13.6407 0.56353 13.6407 0.808665V0.825571C13.6407 1.08761 13.5191 1.20032 13.1938 1.20032H12.6478V0.453641ZM13.7256 2.04843C13.7256 2.31329 13.5785 2.45981 13.2503 2.45981H12.6478V1.62578H13.2192C13.5785 1.62578 13.7256 1.76103 13.7256 2.03434V2.04843ZM17.9694 6.26645C18.1816 6.41578 18.4503 6.49186 18.7757 6.49186C19.1321 6.49186 19.415 6.41296 19.6186 6.25799C19.8223 6.10302 19.9242 5.85789 19.9242 5.5254C19.9242 5.3338 19.8761 5.18165 19.7827 5.06894C19.6894 4.95624 19.5762 4.87171 19.4461 4.81817C19.316 4.76464 19.1462 4.7111 18.9454 4.66039C18.8068 4.62657 18.6993 4.59558 18.6172 4.5674C18.538 4.53923 18.473 4.5026 18.4192 4.4547C18.3683 4.4068 18.3429 4.34763 18.3429 4.27719C18.3429 4.19547 18.3853 4.12785 18.4673 4.07713C18.5494 4.02641 18.6653 4.00106 18.8153 4.00106C18.9595 4.00106 19.0699 4.03205 19.1519 4.09404C19.2339 4.15603 19.2735 4.24056 19.2735 4.34763V4.38707H19.8647V4.33636C19.8647 4.05177 19.7657 3.83763 19.5677 3.69393C19.3697 3.55023 19.1151 3.47697 18.8039 3.47697C18.6003 3.47697 18.4164 3.50797 18.2523 3.57277C18.0883 3.63758 17.9581 3.73338 17.8591 3.86581C17.7629 3.99824 17.712 4.15603 17.712 4.34481C17.712 4.54768 17.7601 4.70829 17.8535 4.82663C17.9496 4.94779 18.06 5.03232 18.1901 5.08867C18.3202 5.1422 18.4871 5.19574 18.6936 5.25209C18.8322 5.2859 18.9397 5.3169 19.0161 5.34507C19.0925 5.37325 19.1575 5.40988 19.2056 5.45496C19.2566 5.50286 19.282 5.56203 19.282 5.63529C19.282 5.73109 19.2396 5.8128 19.1575 5.87479C19.0755 5.93678 18.9397 5.96777 18.7502 5.96777C18.589 5.96777 18.4617 5.93114 18.3711 5.85789C18.2806 5.78463 18.2382 5.68601 18.2382 5.56203L18.241 5.49441H17.647L17.6441 5.58739C17.6498 5.88888 17.7573 6.11429 17.9694 6.26645ZM16.0742 3.51349C16.309 3.51349 16.5211 3.56703 16.7135 3.66846C16.9058 3.7699 17.0586 3.91923 17.1717 4.11929C17.2849 4.31652 17.3415 4.54757 17.3415 4.81525V5.14773C17.3415 5.41541 17.2849 5.64645 17.1717 5.84369C17.0586 6.04093 16.9058 6.19026 16.7135 6.2917C16.5211 6.39595 16.309 6.44667 16.0742 6.44667H14.9172V3.51349H16.0742ZM16.5041 5.74225C16.6173 5.62391 16.671 5.45767 16.671 5.24071V4.71945C16.671 4.50249 16.6145 4.33625 16.5041 4.2179C16.3938 4.09956 16.2495 4.04039 16.0742 4.04039H15.5593V5.91977H16.0742C16.2495 5.91977 16.3938 5.8606 16.5041 5.74225ZM12.6535 3.5136L13.7114 5.5085L13.6831 3.5136H14.2687V6.44678H14.2093H13.6152L12.5544 4.45188L12.5827 6.44678H12V3.5136H12.0594H12.6535ZM15.9895 6.98793C16.2242 6.98793 16.4421 7.03865 16.6344 7.1429C16.8268 7.24434 16.9824 7.39649 17.0983 7.59654C17.2143 7.79378 17.2709 8.03046 17.2709 8.30096V8.7067C17.2709 8.97719 17.2115 9.21388 17.0983 9.41111C16.9824 9.60835 16.8268 9.7605 16.6344 9.86475C16.4619 9.95774 16.2638 10 15.9895 10C15.7151 10 15.5142 9.95774 15.3417 9.86475C15.1465 9.76332 14.9909 9.60835 14.8777 9.41111C14.7618 9.21388 14.7052 8.97719 14.7052 8.7067V8.30096C14.7052 8.03046 14.7646 7.79378 14.8777 7.59654C14.9937 7.39931 15.1493 7.24715 15.3417 7.1429C15.5368 7.04146 15.7547 6.98793 15.9895 6.98793ZM16.5976 8.8025V8.20234C16.5976 7.9882 16.5411 7.82195 16.4279 7.70361C16.3148 7.58809 16.1677 7.52892 15.9866 7.52892C15.8056 7.52892 15.6585 7.58809 15.5453 7.70361C15.4322 7.82195 15.3756 7.9882 15.3756 8.20234V8.8025C15.3756 9.01664 15.4322 9.1857 15.5453 9.30122C15.6585 9.41675 15.8056 9.47592 15.9866 9.47592C16.1677 9.47592 16.3148 9.41675 16.4279 9.30122C16.5411 9.18288 16.5976 9.01664 16.5976 8.8025ZM19.8133 8.37125C19.8897 8.23318 19.9265 8.08385 19.9265 7.92042V7.89506C19.9265 7.72882 19.8869 7.57949 19.8105 7.44706C19.7341 7.31181 19.6294 7.20756 19.4965 7.1343C19.3664 7.05822 19.2221 7.02159 19.0693 7.02159H17.7737V9.95477H18.4102V8.81925H19.0693C19.2277 8.81925 19.372 8.77981 19.5021 8.70091C19.6323 8.6192 19.7369 8.50931 19.8133 8.37125ZM19.2843 7.93733C19.2843 8.03313 19.2504 8.12048 19.1796 8.19092C19.1118 8.26418 19.0241 8.3008 18.9194 8.3008H18.4102V7.54286H18.9194C19.0269 7.54286 19.1146 7.57949 19.1825 7.65274C19.2504 7.726 19.2843 7.81053 19.2843 7.91197V7.93733ZM12.6223 8.18243H13.5756V7.01875H14.198V9.95192H13.5756V8.72906H12.6252V9.95192H12V7.01875H12.6223V8.18243ZM15.9299 1.79202H15.5763V2.91908H14.9172V0H16.0317C16.3768 0 16.6597 0.0704412 16.8549 0.214141C17.0529 0.363477 17.1632 0.586071 17.1632 0.884742V0.901648C17.1632 1.12706 17.101 1.29048 16.9907 1.41728C16.8804 1.54407 16.7276 1.63142 16.5607 1.67932H16.5551L17.2057 2.91908H16.5239L15.9327 1.79202H15.9299ZM16.0148 0.507177H15.5763V1.34402H16.0148C16.3457 1.34402 16.5409 1.20314 16.5409 0.924189V0.907283C16.5409 0.608612 16.3372 0.507177 16.0148 0.507177ZM17.7085 1.60326V2.16116H18.8316L19.2417 2.91911H19.9206L18.3507 0.019744H17.6717L18.5289 1.60326H17.7085ZM19.7424 9.51235C19.7424 9.54335 19.734 9.56589 19.717 9.57998C19.6972 9.59406 19.6774 9.60252 19.6519 9.60815L19.7481 9.7603H19.683L19.5925 9.61097H19.5388V9.7603H19.4822V9.41374H19.6152C19.6576 9.41374 19.6915 9.42219 19.7113 9.43628C19.7311 9.45036 19.7424 9.47572 19.7424 9.51235ZM19.5388 9.56025H19.6038H19.635L19.6604 9.5518L19.6774 9.53489C19.6802 9.52644 19.683 9.51799 19.683 9.5039C19.683 9.49263 19.6802 9.48418 19.6746 9.47854C19.6717 9.47291 19.6661 9.46727 19.6576 9.46445C19.6491 9.46163 19.6406 9.45882 19.6321 9.45882H19.6067H19.5388V9.56025ZM19.6011 9.1771C19.3805 9.1771 19.2023 9.35743 19.2023 9.57721C19.2023 9.79699 19.3805 9.97732 19.6011 9.97732C19.8218 9.97732 20 9.79699 20 9.57721C20 9.35462 19.8218 9.1771 19.6011 9.1771ZM19.6011 9.94632C19.3975 9.94632 19.2306 9.78008 19.2306 9.57439C19.2306 9.3687 19.3975 9.20246 19.6011 9.20246C19.8048 9.20246 19.9717 9.3687 19.9717 9.57439C19.9717 9.78008 19.8076 9.94632 19.6011 9.94632ZM18 16.5V12.748C17.3608 12.9126 16.6906 13 16 13V15.9099L10 19.29V12.5801L11.5992 11.6819C11.0056 11.29 10.4672 10.8213 9.99835 10.2898L9 10.8501L3.03998 7.5L5.08002 6.3501L8.80664 8.50488C8.39423 7.66016 8.12628 6.73193 8.03491 5.75244L7.10999 5.21997L8.00507 4.71313C8.03729 3.79858 8.22302 2.9231 8.53735 2.11157C8.49994 2.13159 8.46405 2.1543 8.42999 2.17993L0.530029 6.62012C0.210022 6.79004 0 7.12012 0 7.5V16.5C0 16.8799 0.210022 17.21 0.530029 17.3799L8.42999 21.8201C8.53387 21.8979 8.6546 21.9507 8.78394 21.978C8.85388 21.9927 8.92633 22 9 22C9.21002 22 9.40997 21.9399 9.57001 21.8201L17.47 17.3799C17.79 17.21 18 16.8799 18 16.5ZM2 15.9099L8 19.29V12.5801L2 9.20996V15.9099Z" fill="black"/>
</svg>
