<svg width="49" height="24" viewBox="0 0 49 24" fill="none" xmlns="http://www.w3.org/2000/svg">
<path d="M0.5 12C0.5 5.3726 5.8726 0 12.5 0H36.5C43.1274 0 48.5 5.3726 48.5 12C48.5 18.6274 43.1274 24 36.5 24H12.5C5.8726 24 0.5 18.6274 0.5 12Z" fill="url(#paint0_linear_201_2256)"/>
<path d="M0.5 12C0.5 5.3726 5.8726 0 12.5 0H36.5C43.1274 0 48.5 5.3726 48.5 12C48.5 18.6274 43.1274 24 36.5 24H12.5C5.8726 24 0.5 18.6274 0.5 12Z" fill="url(#paint1_radial_201_2256)" fill-opacity="0.2"/>
<path d="M0.5 12C0.5 5.3726 5.8726 0 12.5 0H36.5C43.1274 0 48.5 5.3726 48.5 12C48.5 18.6274 43.1274 24 36.5 24H12.5C5.8726 24 0.5 18.6274 0.5 12Z" fill="url(#paint2_radial_201_2256)"/>
<path d="M0.5 12C0.5 5.3726 5.8726 0 12.5 0H36.5C43.1274 0 48.5 5.3726 48.5 12C48.5 18.6274 43.1274 24 36.5 24H12.5C5.8726 24 0.5 18.6274 0.5 12Z" fill="url(#paint3_radial_201_2256)"/>
<path d="M24.4378 13.3026V16.0414H22.868V7.24805H25.7929C28.5688 7.24805 29.7486 8.2413 29.7486 10.2261C29.7486 12.2733 28.3672 13.3026 25.7929 13.3026H24.4378ZM24.4378 8.69365V11.857H25.9125C27.3693 11.857 28.1231 11.38 28.1231 10.1868C28.1231 9.1067 27.4676 8.69205 25.9387 8.69205L24.4378 8.69365Z" fill="white"/>
<path d="M30.5777 10.2012C30.9907 9.89145 31.7445 9.63575 32.8259 9.63575C34.6595 9.63575 35.564 10.2652 35.564 11.8976V16.0427H34.1827V14.9117C33.8812 15.6395 33.116 16.1427 32.1098 16.1427C30.8415 16.1427 30.0894 15.4264 30.0894 14.1955C30.0894 12.763 31.1316 12.3615 32.6752 12.3615H34.0942V12.0861C34.0942 11.1944 33.6682 10.9174 32.8259 10.9174C31.6707 10.9174 31.0054 11.3699 30.5793 12.0352L30.5777 10.2012ZM34.0926 13.8251V13.317H32.8505C31.9836 13.317 31.5691 13.4809 31.5691 14.0447C31.5691 14.5216 31.9198 14.8232 32.5736 14.8232C33.565 14.8232 34.0303 14.2578 34.0926 13.8251Z" fill="white"/>
<path d="M36.29 9.7617H37.9286L39.6492 14.0691L41.0551 9.7617H42.6119L40.1015 16.7079C39.5476 18.2141 38.9839 18.5534 38.1548 18.5534C37.7648 18.5534 37.3354 18.4403 37.1502 18.2781V16.9079C37.3522 17.1049 37.6218 17.2176 37.904 17.2225C38.3546 17.2225 38.6939 16.921 38.9331 16.0753L36.29 9.7617Z" fill="white"/>
<path d="M9.94375 10.2072V12.1363L12.5 13.7393L18.6203 9.2352C18.4044 8.76015 18.1338 8.31185 17.8141 7.8994L12.5 11.8101L9.94375 10.2072Z" fill="white"/>
<path d="M17.6633 11.8574V11.9966C17.6651 13.1522 17.28 14.275 16.5693 15.1859C15.8587 16.0968 14.8635 16.7435 13.7425 17.0227C12.6215 17.3018 11.4394 17.1974 10.3847 16.7261C9.3299 16.2548 8.4634 15.4436 7.92335 14.4222C7.3833 13.4008 7.2008 12.2278 7.40505 11.0906C7.60925 9.9533 8.1884 8.9172 9.05005 8.1476C9.91175 7.37795 11.0063 6.9192 12.159 6.84445C13.3118 6.7697 14.4564 7.0833 15.4102 7.7352L16.7211 6.7731C15.5359 5.81505 14.0603 5.28855 12.5365 5.2799C11.0127 5.27125 9.53115 5.78105 8.3351 6.7256C7.1391 7.6701 6.29965 8.99325 5.95455 10.4779C5.60945 11.9625 5.7792 13.5204 6.4359 14.8958C7.0926 16.2712 8.1973 17.3825 9.5686 18.0471C10.9399 18.7118 12.4964 18.8904 13.9826 18.5537C15.4689 18.217 16.7964 17.3849 17.7475 16.194C18.6986 15.0031 19.2168 13.5242 19.2168 12C19.2166 11.596 19.1805 11.1928 19.1087 10.7952L17.6633 11.8574Z" fill="white"/>
<defs>
<linearGradient id="paint0_linear_201_2256" x1="1.28177" y1="1.76778e-07" x2="48.6061" y2="0.284496" gradientUnits="userSpaceOnUse">
<stop stop-color="#1EDB01"/>
<stop offset="1" stop-color="#00C746"/>
</linearGradient>
<radialGradient id="paint1_radial_201_2256" cx="0" cy="0" r="1" gradientUnits="userSpaceOnUse" gradientTransform="translate(36.9 24) rotate(-135) scale(36.2039 43.795)">
<stop stop-color="#00A7FA"/>
<stop offset="1" stop-color="#00A7FA" stop-opacity="0"/>
</radialGradient>
<radialGradient id="paint2_radial_201_2256" cx="0" cy="0" r="1" gradientUnits="userSpaceOnUse" gradientTransform="translate(39.06 23.6) rotate(180) scale(19.28 24.0786)">
<stop stop-color="#00A7FA"/>
<stop offset="1" stop-color="#00A7FA" stop-opacity="0"/>
</radialGradient>
<radialGradient id="paint3_radial_201_2256" cx="0" cy="0" r="1" gradientUnits="userSpaceOnUse" gradientTransform="translate(5.06 3.28) rotate(45) scale(20.1384 24.3039)">
<stop stop-color="#FAED01"/>
<stop offset="1" stop-color="#FAED01" stop-opacity="0"/>
</radialGradient>
</defs>
</svg>
