<svg width="30" height="15" viewBox="0 0 30 15" fill="none" xmlns="http://www.w3.org/2000/svg">
<path d="M0 7.40746C0 4.20891 0 2.60964 0.862361 1.51903C1.05501 1.27539 1.27539 1.05501 1.51903 0.862361C2.60964 0 4.20891 0 7.40745 0H22.5927C25.7913 0 27.3906 0 28.4812 0.862361C28.7248 1.05501 28.9452 1.27539 29.1378 1.51903C30.0002 2.60964 30.0002 4.20891 30.0002 7.40746V7.40746C30.0002 10.606 30.0002 12.2053 29.1378 13.2959C28.9452 13.5395 28.7248 13.7599 28.4812 13.9525C27.3906 14.8149 25.7913 14.8149 22.5927 14.8149H7.40746C4.20891 14.8149 2.60964 14.8149 1.51903 13.9525C1.27539 13.7599 1.05501 13.5395 0.862361 13.2959C0 12.2053 0 10.606 0 7.40746V7.40746Z" fill="black"/>
<g clip-path="url(#clip0_844_39910)">
<mask id="mask0_844_39910" style="mask-type:alpha" maskUnits="userSpaceOnUse" x="4" y="2" width="9" height="10">
<path d="M12.9738 7.4065C12.9738 9.85632 10.9857 11.8423 8.53327 11.8423C6.08085 11.8423 4.09277 9.85632 4.09277 7.4065C4.09277 4.95668 6.08085 2.9707 8.53327 2.9707C10.9857 2.9707 12.9738 4.95668 12.9738 7.4065Z" fill="#C4C4C4"/>
</mask>
<g mask="url(#mask0_844_39910)">
<path d="M4.09277 2.96191H12.9911V11.8509H4.09277V2.96191Z" fill="#F23F1F"/>
<path d="M9.11234 5.48036H8.70125C7.94758 5.48036 7.55117 5.86168 7.55117 6.42389C7.55117 7.05942 7.82523 7.35764 8.38803 7.73896L8.85296 8.05184L7.51692 10.0464H6.51855L7.71757 8.26206C7.02752 7.76829 6.6409 7.28919 6.6409 6.47766C6.6409 5.4608 7.35052 4.7666 8.69635 4.7666H10.0324V10.0416H9.11234V5.48036Z" fill="white"/>
</g>
</g>
<path d="M15.2832 4.69727V9.99989H16.2074V8.10773H16.658C17.8648 8.10773 18.6362 7.55077 18.6362 6.3758C18.6362 5.30764 17.9182 4.69727 16.6656 4.69727H15.2832ZM16.6656 7.39054H16.2074V5.41446H16.6962C17.3454 5.41446 17.6967 5.71201 17.6967 6.3758C17.6967 7.0701 17.3072 7.39054 16.6656 7.39054Z" fill="white"/>
<path d="M22.5704 9.99989L21.1727 4.69727H20.0041L18.5988 9.99989H19.3931L19.691 8.84018H21.3178L21.608 9.99989H22.5704ZM19.8743 8.12299L20.5082 5.66624L21.1345 8.12299H19.8743Z" fill="white"/>
<path d="M26.2973 4.69727H25.4343L24.3421 6.90987L23.2575 4.69727H22.2646L23.8227 7.73388V9.99989H24.7469V7.73388L26.2973 4.69727Z" fill="white"/>
<defs>
<clipPath id="clip0_844_39910">
<rect width="8.89837" height="8.88895" fill="white" transform="translate(4.07422 2.96191)"/>
</clipPath>
</defs>
</svg>
